<?xml version="1.0" encoding="utf-8"?>
<svg version="1.2" baseProfile="tiny" id="svg2" xmlns:svg="http://www.w3.org/2000/svg" xmlns="http://www.w3.org/2000/svg" xmlns:xlink="http://www.w3.org/1999/xlink" x="0px" y="0px"  width="25.50" height="32.00" xml:space="preserve">
<g transform="scale(1,-1) translate(0,-32.00)"><path id="dimension" fill="#241C1C" d="M22.00,0.00L3.50,0.00A3.50,3.50,0,0,0,0.00,3.50L0.00,3.50L0.00,28.50A3.50,3.50,0,0,0,3.50,32.00L3.50,32.00L22.00,32.00A3.50,3.50,0,0,0,25.50,28.50L25.50,28.50L25.50,3.50A3.50,3.50,0,0,0,22.00,0.00M1.90,3.50A1.60,1.60,0,0,1,5.10,3.50zM5.10,3.50A1.60,1.60,0,0,1,1.90,3.50zM20.40,3.50A1.60,1.60,0,0,1,23.60,3.50zM23.60,3.50A1.60,1.60,0,0,1,20.40,3.50zM20.40,28.50A1.60,1.60,0,0,1,23.60,28.50zM23.60,28.50A1.60,1.60,0,0,1,20.40,28.50zM1.90,28.50A1.60,1.60,0,0,1,5.10,28.50zM5.10,28.50A1.60,1.60,0,0,1,1.90,28.50z"/>
<line x1="5.12" y1="14.31" x2="5.12" y2="14.08" stroke-width="0.51" stroke="#000000"/>
<line x1="5.12" y1="14.08" x2="6.90" y2="12.30" stroke-width="0.51" stroke="#000000"/>
<line x1="6.90" y1="12.30" x2="14.85" y2="12.30" stroke-width="0.51" stroke="#000000"/>
<line x1="14.85" y1="12.30" x2="14.90" y2="12.35" stroke-width="0.51" stroke="#000000"/>
<line x1="14.90" y1="12.35" x2="15.15" y2="12.35" stroke-width="0.51" stroke="#000000"/>
<line x1="15.15" y1="12.35" x2="16.10" y2="13.30" stroke-width="0.51" stroke="#000000"/>
<line x1="16.10" y1="13.30" x2="16.10" y2="14.28" stroke-width="0.51" stroke="#000000"/>
<line x1="16.10" y1="14.28" x2="16.07" y2="14.31" stroke-width="0.51" stroke="#000000"/>
<line x1="20.13" y1="15.58" x2="22.47" y2="15.58" stroke-width="0.25" stroke="#000000"/>
<line x1="22.47" y1="15.58" x2="23.05" y2="15.00" stroke-width="0.25" stroke="#000000"/>
<line x1="23.05" y1="15.00" x2="23.05" y2="14.20" stroke-width="0.25" stroke="#000000"/>
<line x1="23.05" y1="14.20" x2="23.05" y2="14.20" stroke-width="0.25" stroke="#000000"/>
<line x1="9.75" y1="23.60" x2="11.60" y2="23.60" stroke-width="0.25" stroke="#000000"/>
<line x1="11.60" y1="23.60" x2="15.85" y2="27.80" stroke-width="0.25" stroke="#000000"/>
<line x1="15.85" y1="27.80" x2="19.45" y2="27.80" stroke-width="0.25" stroke="#000000"/>
<line x1="19.45" y1="27.80" x2="24.65" y2="22.60" stroke-width="0.25" stroke="#000000"/>
<line x1="24.65" y1="22.60" x2="24.65" y2="16.60" stroke-width="0.25" stroke="#000000"/>
<line x1="24.65" y1="16.60" x2="23.05" y2="15.00" stroke-width="0.25" stroke="#000000"/>
<line x1="5.12" y1="19.39" x2="3.11" y2="19.39" stroke-width="0.25" stroke="#000000"/>
<line x1="3.11" y1="19.39" x2="3.05" y2="19.45" stroke-width="0.25" stroke="#000000"/>
<line x1="16.07" y1="19.39" x2="16.15" y2="19.39" stroke-width="0.41" stroke="#000000"/>
<line x1="16.15" y1="19.39" x2="16.75" y2="19.99" stroke-width="0.25" stroke="#000000"/>
<line x1="16.75" y1="19.99" x2="16.70" y2="20.45" stroke-width="0.25" stroke="#000000"/>
<line x1="11.72" y1="10.70" x2="10.65" y2="10.70" stroke-width="0.25" stroke="#000000"/>
<line x1="10.65" y1="10.70" x2="10.60" y2="10.75" stroke-width="0.25" stroke="#000000"/>
<line x1="5.12" y1="18.12" x2="1.83" y2="18.12" stroke-width="0.25" stroke="#000000"/>
<line x1="1.83" y1="18.12" x2="1.45" y2="18.50" stroke-width="0.25" stroke="#000000"/>
<line x1="1.45" y1="18.50" x2="1.45" y2="24.30" stroke-width="0.25" stroke="#000000"/>
<line x1="1.45" y1="24.30" x2="2.85" y2="25.70" stroke-width="0.25" stroke="#000000"/>
<line x1="15.80" y1="30.90" x2="16.45" y2="30.25" stroke-width="0.25" stroke="#000000"/>
<line x1="2.85" y1="25.70" x2="10.10" y2="25.70" stroke-width="0.25" stroke="#000000"/>
<line x1="10.10" y1="25.70" x2="10.90" y2="26.50" stroke-width="0.25" stroke="#000000"/>
<line x1="10.90" y1="26.50" x2="10.90" y2="28.00" stroke-width="0.25" stroke="#000000"/>
<line x1="10.90" y1="28.00" x2="13.80" y2="30.90" stroke-width="0.25" stroke="#000000"/>
<line x1="13.80" y1="30.90" x2="15.80" y2="30.90" stroke-width="0.25" stroke="#000000"/>
<line x1="9.18" y1="18.12" x2="7.28" y2="18.12" stroke-width="0.25" stroke="#000000"/>
<line x1="7.28" y1="18.12" x2="7.15" y2="18.25" stroke-width="0.25" stroke="#000000"/>
<line x1="7.15" y1="18.25" x2="7.15" y2="25.00" stroke-width="0.25" stroke="#000000"/>
<line x1="7.15" y1="25.00" x2="7.10" y2="25.05" stroke-width="0.25" stroke="#000000"/>
<line x1="7.10" y1="25.05" x2="10.65" y2="25.05" stroke-width="0.25" stroke="#000000"/>
<line x1="10.65" y1="25.05" x2="14.65" y2="29.05" stroke-width="0.25" stroke="#000000"/>
<line x1="22.75" y1="21.55" x2="20.10" y2="24.20" stroke-width="0.25" stroke="#000000"/>
<line x1="20.10" y1="24.20" x2="15.55" y2="24.20" stroke-width="0.25" stroke="#000000"/>
<line x1="12.85" y1="17.60" x2="11.15" y2="19.30" stroke-width="0.25" stroke="#000000"/>
<line x1="11.15" y1="19.30" x2="11.15" y2="20.05" stroke-width="0.25" stroke="#000000"/>
<line x1="11.15" y1="20.05" x2="11.60" y2="20.50" stroke-width="0.25" stroke="#000000"/>
<line x1="11.60" y1="20.50" x2="14.75" y2="20.50" stroke-width="0.25" stroke="#000000"/>
<line x1="5.12" y1="16.85" x2="3.60" y2="16.85" stroke-width="0.25" stroke="#000000"/>
<line x1="3.60" y1="16.85" x2="3.15" y2="16.40" stroke-width="0.25" stroke="#000000"/>
<line x1="3.15" y1="16.40" x2="3.15" y2="10.45" stroke-width="0.25" stroke="#000000"/>
<line x1="3.15" y1="10.45" x2="3.15" y2="10.45" stroke-width="0.25" stroke="#000000"/>
<line x1="16.07" y1="16.85" x2="14.45" y2="16.85" stroke-width="0.25" stroke="#000000"/>
<line x1="14.45" y1="16.85" x2="14.15" y2="16.85" stroke-width="0.25" stroke="#000000"/>
<line x1="5.12" y1="16.85" x2="7.10" y2="16.85" stroke-width="0.25" stroke="#000000"/>
<line x1="7.10" y1="16.85" x2="7.15" y2="16.80" stroke-width="0.25" stroke="#000000"/>
<line x1="14.02" y1="19.62" x2="11.83" y2="19.62" stroke-width="0.25" stroke="#000000"/>
<line x1="13.97" y1="19.05" x2="14.02" y2="19.62" stroke-width="0.25" stroke="#000000"/>
<line x1="15.24" y1="17.78" x2="13.97" y2="19.05" stroke-width="0.25" stroke="#000000"/>
<line x1="15.24" y1="17.78" x2="16.07" y2="18.12" stroke-width="0.25" stroke="#000000"/>
<line x1="9.18" y1="19.39" x2="7.85" y2="20.72" stroke-width="0.25" stroke="#000000"/>
<line x1="7.85" y1="20.72" x2="7.85" y2="23.40" stroke-width="0.25" stroke="#000000"/>
<line x1="7.85" y1="23.40" x2="8.70" y2="24.40" stroke-width="0.25" stroke="#000000"/>
<line x1="8.70" y1="24.40" x2="11.60" y2="24.40" stroke-width="0.25" stroke="#000000"/>
<line x1="11.60" y1="24.40" x2="16.00" y2="28.70" stroke-width="0.25" stroke="#000000"/>
<line x1="16.00" y1="28.70" x2="18.30" y2="28.70" stroke-width="0.25" stroke="#000000"/>
<line x1="20.13" y1="16.85" x2="21.75" y2="16.85" stroke-width="0.25" stroke="#000000"/>
<line x1="21.75" y1="16.85" x2="22.75" y2="17.85" stroke-width="0.25" stroke="#000000"/>
<line x1="22.75" y1="17.85" x2="22.75" y2="19.85" stroke-width="0.25" stroke="#000000"/>
<line x1="22.75" y1="19.85" x2="22.75" y2="19.85" stroke-width="0.25" stroke="#000000"/>
<line x1="11.75" y1="17.50" x2="10.60" y2="16.85" stroke-width="0.25" stroke="#000000"/>
<line x1="10.60" y1="16.85" x2="9.18" y2="16.85" stroke-width="0.25" stroke="#000000"/>
<line x1="20.13" y1="16.85" x2="18.80" y2="16.85" stroke-width="0.25" stroke="#000000"/>
<line x1="18.80" y1="16.85" x2="18.10" y2="17.55" stroke-width="0.25" stroke="#000000"/>
<line x1="16.07" y1="15.58" x2="15.49" y2="15.00" stroke-width="0.25" stroke="#000000"/>
<line x1="15.49" y1="15.00" x2="13.75" y2="15.00" stroke-width="0.25" stroke="#000000"/>
<line x1="5.12" y1="15.58" x2="5.70" y2="15.00" stroke-width="0.25" stroke="#000000"/>
<line x1="5.70" y1="15.00" x2="7.10" y2="15.00" stroke-width="0.25" stroke="#000000"/>
<line x1="12.85" y1="15.90" x2="13.35" y2="15.00" stroke-width="0.25" stroke="#000000"/>
<line x1="13.35" y1="15.00" x2="13.75" y2="15.00" stroke-width="0.25" stroke="#000000"/>
<line x1="10.70" y1="22.95" x2="15.75" y2="22.85" stroke-width="0.25" stroke="#000000"/>
<line x1="15.75" y1="22.85" x2="16.30" y2="21.20" stroke-width="0.25" stroke="#000000"/>
<line x1="16.30" y1="21.20" x2="18.32" y2="21.20" stroke-width="0.25" stroke="#000000"/>
<line x1="18.32" y1="21.20" x2="20.13" y2="19.39" stroke-width="0.25" stroke="#000000"/>
<line x1="9.18" y1="15.58" x2="9.81" y2="15.10" stroke-width="0.25" stroke="#000000"/>
<line x1="9.81" y1="15.10" x2="11.20" y2="15.10" stroke-width="0.25" stroke="#000000"/>
<line x1="11.20" y1="15.10" x2="11.70" y2="14.45" stroke-width="0.25" stroke="#000000"/>
<line x1="11.70" y1="14.45" x2="11.70" y2="13.70" stroke-width="0.25" stroke="#000000"/>
<line x1="11.25" y1="16.00" x2="11.25" y2="15.15" stroke-width="0.25" stroke="#000000"/>
<line x1="11.25" y1="15.15" x2="11.20" y2="15.10" stroke-width="0.25" stroke="#000000"/>
<line x1="8.89" y1="13.97" x2="8.89" y2="14.31" stroke-width="0.25" stroke="#000000"/>
<line x1="8.89" y1="13.97" x2="9.18" y2="14.31" stroke-width="0.25" stroke="#000000"/>
<line x1="20.64" y1="10.50" x2="20.64" y2="23.20" stroke-width="0.13" stroke="#FFFFFF"/>
<line x1="20.64" y1="10.50" x2="15.05" y2="10.50" stroke-width="0.13" stroke="#FFFFFF"/>
<line x1="15.05" y1="10.50" x2="15.05" y2="11.44" stroke-width="0.13" stroke="#FFFFFF"/>
<line x1="15.05" y1="11.44" x2="15.56" y2="11.44" stroke-width="0.13" stroke="#FFFFFF"/>
<line x1="15.56" y1="11.44" x2="15.56" y2="16.21" stroke-width="0.13" stroke="#FFFFFF"/>
<line x1="15.56" y1="16.21" x2="15.05" y2="16.21" stroke-width="0.13" stroke="#FFFFFF"/>
<line x1="15.05" y1="16.21" x2="15.05" y2="17.48" stroke-width="0.13" stroke="#FFFFFF"/>
<line x1="15.05" y1="17.48" x2="15.56" y2="17.48" stroke-width="0.13" stroke="#FFFFFF"/>
<line x1="15.56" y1="17.48" x2="15.56" y2="22.26" stroke-width="0.13" stroke="#FFFFFF"/>
<line x1="15.56" y1="22.26" x2="15.05" y2="22.26" stroke-width="0.13" stroke="#FFFFFF"/>
<line x1="15.05" y1="22.26" x2="15.05" y2="23.20" stroke-width="0.13" stroke="#FFFFFF"/>
<line x1="15.05" y1="23.20" x2="20.64" y2="23.20" stroke-width="0.13" stroke="#FFFFFF"/>
<line x1="20.64" y1="13.68" x2="20.64" y2="10.50" stroke-width="0.13" stroke="#FFFFFF"/>
<line x1="20.64" y1="10.50" x2="15.05" y2="10.50" stroke-width="0.13" stroke="#FFFFFF"/>
<line x1="15.05" y1="10.50" x2="15.05" y2="11.44" stroke-width="0.13" stroke="#FFFFFF"/>
<line x1="15.05" y1="11.44" x2="15.56" y2="11.44" stroke-width="0.13" stroke="#FFFFFF"/>
<line x1="15.56" y1="11.44" x2="15.56" y2="13.68" stroke-width="0.13" stroke="#FFFFFF"/>
<line x1="15.56" y1="16.21" x2="15.05" y2="16.21" stroke-width="0.13" stroke="#FFFFFF"/>
<line x1="15.56" y1="17.48" x2="15.05" y2="17.48" stroke-width="0.13" stroke="#FFFFFF"/>
<line x1="15.56" y1="20.03" x2="15.56" y2="22.26" stroke-width="0.13" stroke="#FFFFFF"/>
<line x1="15.56" y1="22.26" x2="15.05" y2="22.26" stroke-width="0.13" stroke="#FFFFFF"/>
<line x1="15.05" y1="22.26" x2="15.05" y2="23.20" stroke-width="0.13" stroke="#FFFFFF"/>
<line x1="15.05" y1="23.20" x2="20.64" y2="23.20" stroke-width="0.13" stroke="#FFFFFF"/>
<line x1="20.64" y1="23.20" x2="20.64" y2="20.03" stroke-width="0.13" stroke="#FFFFFF"/>
<g transform="rotate(180, 20.13, 14.31)">
<rect x="18.74" y="13.94" width="2.79" height="0.74" stroke="white" fill="white" stroke-width="0"/>
</g>
<g transform="rotate(180, 16.07, 14.31)">
<rect x="14.67" y="13.94" width="2.79" height="0.74" stroke="white" fill="white" stroke-width="0"/>
</g>
<g transform="rotate(180, 20.13, 15.58)">
<rect x="18.74" y="15.21" width="2.79" height="0.74" stroke="white" fill="white" stroke-width="0"/>
</g>
<g transform="rotate(180, 16.07, 15.58)">
<rect x="14.67" y="15.21" width="2.79" height="0.74" stroke="white" fill="white" stroke-width="0"/>
</g>
<g transform="rotate(180, 20.13, 16.85)">
<rect x="18.74" y="16.48" width="2.79" height="0.74" stroke="white" fill="white" stroke-width="0"/>
</g>
<g transform="rotate(180, 16.07, 16.85)">
<rect x="14.67" y="16.48" width="2.79" height="0.74" stroke="white" fill="white" stroke-width="0"/>
</g>
<g transform="rotate(180, 20.13, 18.12)">
<rect x="18.74" y="17.75" width="2.79" height="0.74" stroke="white" fill="white" stroke-width="0"/>
</g>
<g transform="rotate(180, 16.07, 18.12)">
<rect x="14.67" y="17.75" width="2.79" height="0.74" stroke="white" fill="white" stroke-width="0"/>
</g>
<g transform="rotate(180, 20.13, 19.39)">
<rect x="18.74" y="19.02" width="2.79" height="0.74" stroke="white" fill="white" stroke-width="0"/>
</g>
<g transform="rotate(180, 16.07, 19.39)">
<rect x="14.67" y="19.02" width="2.79" height="0.74" stroke="white" fill="white" stroke-width="0"/>
</g>
<line x1="13.32" y1="10.35" x2="11.87" y2="10.35" stroke-width="0.10" stroke="#FFFFFF"/>
<line x1="11.87" y1="11.05" x2="13.32" y2="11.05" stroke-width="0.10" stroke="#FFFFFF"/>
<g transform="rotate(180, 13.47, 10.70)">
<rect x="12.95" y="10.16" width="1.05" height="1.08" stroke="white" fill="white" stroke-width="0"/>
</g>
<g transform="rotate(180, 11.72, 10.70)">
<rect x="11.20" y="10.16" width="1.05" height="1.08" stroke="white" fill="white" stroke-width="0"/>
</g>
<line x1="22.39" y1="21.13" x2="22.39" y2="20.27" stroke-width="0.15" stroke="#FFFFFF"/>
<line x1="23.11" y1="20.27" x2="23.11" y2="21.13" stroke-width="0.15" stroke="#FFFFFF"/>
<line x1="23.73" y1="22.17" x2="23.73" y2="19.23" stroke-width="0.05" stroke="#FFFFFF"/>
<line x1="23.73" y1="19.23" x2="21.77" y2="19.23" stroke-width="0.05" stroke="#FFFFFF"/>
<line x1="21.77" y1="19.23" x2="21.77" y2="22.17" stroke-width="0.05" stroke="#FFFFFF"/>
<line x1="21.77" y1="22.17" x2="23.73" y2="22.17" stroke-width="0.05" stroke="#FFFFFF"/>
<g transform="rotate(270, 22.75, 21.55)">
<rect x="22.25" y="21.00" width="1.00" height="1.10" stroke="white" fill="white" stroke-width="0"/>
</g>
<g transform="rotate(270, 22.75, 19.85)">
<rect x="22.25" y="19.30" width="1.00" height="1.10" stroke="white" fill="white" stroke-width="0"/>
</g>
<line x1="2.79" y1="10.03" x2="2.79" y2="9.17" stroke-width="0.15" stroke="#FFFFFF"/>
<line x1="3.51" y1="9.17" x2="3.51" y2="10.03" stroke-width="0.15" stroke="#FFFFFF"/>
<line x1="4.13" y1="11.07" x2="4.13" y2="8.13" stroke-width="0.05" stroke="#FFFFFF"/>
<line x1="4.13" y1="8.13" x2="2.17" y2="8.13" stroke-width="0.05" stroke="#FFFFFF"/>
<line x1="2.17" y1="8.13" x2="2.17" y2="11.07" stroke-width="0.05" stroke="#FFFFFF"/>
<line x1="2.17" y1="11.07" x2="4.13" y2="11.07" stroke-width="0.05" stroke="#FFFFFF"/>
<g transform="rotate(270, 3.15, 10.45)">
<rect x="2.65" y="9.90" width="1.00" height="1.10" stroke="white" fill="white" stroke-width="0"/>
</g>
<g transform="rotate(270, 3.15, 8.75)">
<rect x="2.65" y="8.20" width="1.00" height="1.10" stroke="white" fill="white" stroke-width="0"/>
</g>
<line x1="12.49" y1="17.18" x2="12.49" y2="16.32" stroke-width="0.15" stroke="#FFFFFF"/>
<line x1="13.21" y1="16.32" x2="13.21" y2="17.18" stroke-width="0.15" stroke="#FFFFFF"/>
<line x1="13.83" y1="18.22" x2="13.83" y2="15.28" stroke-width="0.05" stroke="#FFFFFF"/>
<line x1="13.83" y1="15.28" x2="11.87" y2="15.28" stroke-width="0.05" stroke="#FFFFFF"/>
<line x1="11.87" y1="15.28" x2="11.87" y2="18.22" stroke-width="0.05" stroke="#FFFFFF"/>
<line x1="11.87" y1="18.22" x2="13.83" y2="18.22" stroke-width="0.05" stroke="#FFFFFF"/>
<g transform="rotate(270, 12.85, 17.60)">
<rect x="12.35" y="17.05" width="1.00" height="1.10" stroke="white" fill="white" stroke-width="0"/>
</g>
<g transform="rotate(270, 12.85, 15.90)">
<rect x="12.35" y="15.35" width="1.00" height="1.10" stroke="white" fill="white" stroke-width="0"/>
</g>
<line x1="12.12" y1="13.34" x2="12.98" y2="13.34" stroke-width="0.15" stroke="#FFFFFF"/>
<line x1="12.98" y1="14.06" x2="12.12" y2="14.06" stroke-width="0.15" stroke="#FFFFFF"/>
<line x1="11.08" y1="14.68" x2="14.02" y2="14.68" stroke-width="0.05" stroke="#FFFFFF"/>
<line x1="14.02" y1="14.68" x2="14.02" y2="12.72" stroke-width="0.05" stroke="#FFFFFF"/>
<line x1="14.02" y1="12.72" x2="11.08" y2="12.72" stroke-width="0.05" stroke="#FFFFFF"/>
<line x1="11.08" y1="12.72" x2="11.08" y2="14.68" stroke-width="0.05" stroke="#FFFFFF"/>
<g>
<rect x="11.20" y="13.15" width="1.00" height="1.10" stroke="white" fill="white" stroke-width="0"/>
</g>
<g>
<rect x="12.90" y="13.15" width="1.00" height="1.10" stroke="white" fill="white" stroke-width="0"/>
</g>
<line x1="22.69" y1="13.78" x2="22.69" y2="12.92" stroke-width="0.15" stroke="#FFFFFF"/>
<line x1="23.41" y1="12.92" x2="23.41" y2="13.78" stroke-width="0.15" stroke="#FFFFFF"/>
<line x1="24.03" y1="14.82" x2="24.03" y2="11.88" stroke-width="0.05" stroke="#FFFFFF"/>
<line x1="24.03" y1="11.88" x2="22.07" y2="11.88" stroke-width="0.05" stroke="#FFFFFF"/>
<line x1="22.07" y1="11.88" x2="22.07" y2="14.82" stroke-width="0.05" stroke="#FFFFFF"/>
<line x1="22.07" y1="14.82" x2="24.03" y2="14.82" stroke-width="0.05" stroke="#FFFFFF"/>
<g transform="rotate(270, 23.05, 14.20)">
<rect x="22.55" y="13.65" width="1.00" height="1.10" stroke="white" fill="white" stroke-width="0"/>
</g>
<g transform="rotate(270, 23.05, 12.50)">
<rect x="22.55" y="11.95" width="1.00" height="1.10" stroke="white" fill="white" stroke-width="0"/>
</g>
<circle cx="3.50" cy="3.50" r="3.50" stroke="white" fill="none" stroke-width="0.20"/>
<circle cx="22.00" cy="3.50" r="3.50" stroke="white" fill="none" stroke-width="0.20"/>
<circle cx="22.00" cy="28.50" r="3.50" stroke="white" fill="none" stroke-width="0.20"/>
<circle cx="3.50" cy="28.50" r="3.50" stroke="white" fill="none" stroke-width="0.20"/>
<line x1="0.55" y1="20.45" x2="0.55" y2="12.55" stroke-width="0.20" stroke="#FFFFFF"/>
<line x1="0.55" y1="12.55" x2="3.55" y2="12.55" stroke-width="0.20" stroke="#FFFFFF"/>
<line x1="3.55" y1="12.55" x2="3.55" y2="20.45" stroke-width="0.20" stroke="#FFFFFF"/>
<line x1="3.55" y1="20.45" x2="0.55" y2="20.45" stroke-width="0.20" stroke="#FFFFFF"/>
<line x1="21.95" y1="15.20" x2="24.95" y2="15.20" stroke-width="0.20" stroke="#FFFFFF"/>
<line x1="24.95" y1="15.20" x2="24.95" y2="18.20" stroke-width="0.20" stroke="#FFFFFF"/>
<line x1="24.95" y1="18.20" x2="21.95" y2="18.20" stroke-width="0.20" stroke="#FFFFFF"/>
<line x1="21.95" y1="18.20" x2="21.95" y2="15.20" stroke-width="0.20" stroke="#FFFFFF"/>
<rect x="10.25" y="0.85" width="4.90" height="0.70" stroke="white" fill="white" stroke-width="0"/>
<rect x="10.25" y="0.85" width="0.70" height="4.90" stroke="white" fill="white" stroke-width="0"/>
<rect x="14.45" y="0.85" width="0.70" height="4.90" stroke="white" fill="white" stroke-width="0"/>
<rect x="10.25" y="5.05" width="4.90" height="0.70" stroke="white" fill="white" stroke-width="0"/>
<rect x="11.65" y="3.65" width="2.90" height="0.70" stroke="white" fill="white" stroke-width="0"/>
<rect x="11.65" y="2.25" width="0.70" height="1.50" stroke="white" fill="white" stroke-width="0"/>
<rect x="12.15" y="2.25" width="1.60" height="0.70" stroke="white" fill="white" stroke-width="0"/>
<line x1="16.21" y1="22.52" x2="16.21" y2="29.53" stroke-width="0.15" stroke="#FFFFFF"/>
<line x1="16.21" y1="29.53" x2="9.20" y2="29.53" stroke-width="0.15" stroke="#FFFFFF"/>
<line x1="9.20" y1="29.53" x2="9.20" y2="22.87" stroke-width="0.15" stroke="#FFFFFF"/>
<line x1="9.55" y1="22.52" x2="16.21" y2="22.52" stroke-width="0.15" stroke="#FFFFFF"/>
<line x1="9.55" y1="22.52" x2="9.20" y2="22.87" stroke-width="0.15" stroke="#FFFFFF"/>
<line x1="9.69" y1="10.50" x2="9.69" y2="23.20" stroke-width="0.13" stroke="#FFFFFF"/>
<line x1="9.69" y1="10.50" x2="4.10" y2="10.50" stroke-width="0.13" stroke="#FFFFFF"/>
<line x1="4.10" y1="10.50" x2="4.10" y2="11.44" stroke-width="0.13" stroke="#FFFFFF"/>
<line x1="4.10" y1="11.44" x2="4.61" y2="11.44" stroke-width="0.13" stroke="#FFFFFF"/>
<line x1="4.61" y1="11.44" x2="4.61" y2="16.21" stroke-width="0.13" stroke="#FFFFFF"/>
<line x1="4.61" y1="16.21" x2="4.10" y2="16.21" stroke-width="0.13" stroke="#FFFFFF"/>
<line x1="4.10" y1="16.21" x2="4.10" y2="17.48" stroke-width="0.13" stroke="#FFFFFF"/>
<line x1="4.10" y1="17.48" x2="4.61" y2="17.48" stroke-width="0.13" stroke="#FFFFFF"/>
<line x1="4.61" y1="17.48" x2="4.61" y2="22.26" stroke-width="0.13" stroke="#FFFFFF"/>
<line x1="4.61" y1="22.26" x2="4.10" y2="22.26" stroke-width="0.13" stroke="#FFFFFF"/>
<line x1="4.10" y1="22.26" x2="4.10" y2="23.20" stroke-width="0.13" stroke="#FFFFFF"/>
<line x1="4.10" y1="23.20" x2="9.69" y2="23.20" stroke-width="0.13" stroke="#FFFFFF"/>
<line x1="9.69" y1="13.68" x2="9.69" y2="10.50" stroke-width="0.13" stroke="#FFFFFF"/>
<line x1="9.69" y1="10.50" x2="4.10" y2="10.50" stroke-width="0.13" stroke="#FFFFFF"/>
<line x1="4.10" y1="10.50" x2="4.10" y2="11.44" stroke-width="0.13" stroke="#FFFFFF"/>
<line x1="4.10" y1="11.44" x2="4.61" y2="11.44" stroke-width="0.13" stroke="#FFFFFF"/>
<line x1="4.61" y1="11.44" x2="4.61" y2="13.68" stroke-width="0.13" stroke="#FFFFFF"/>
<line x1="4.61" y1="16.21" x2="4.10" y2="16.21" stroke-width="0.13" stroke="#FFFFFF"/>
<line x1="4.61" y1="17.48" x2="4.10" y2="17.48" stroke-width="0.13" stroke="#FFFFFF"/>
<line x1="4.61" y1="20.03" x2="4.61" y2="22.26" stroke-width="0.13" stroke="#FFFFFF"/>
<line x1="4.61" y1="22.26" x2="4.10" y2="22.26" stroke-width="0.13" stroke="#FFFFFF"/>
<line x1="4.10" y1="22.26" x2="4.10" y2="23.20" stroke-width="0.13" stroke="#FFFFFF"/>
<line x1="4.10" y1="23.20" x2="9.69" y2="23.20" stroke-width="0.13" stroke="#FFFFFF"/>
<line x1="9.69" y1="23.20" x2="9.69" y2="20.03" stroke-width="0.13" stroke="#FFFFFF"/>
<g transform="rotate(180, 9.18, 14.31)">
<rect x="7.79" y="13.94" width="2.79" height="0.74" stroke="white" fill="white" stroke-width="0"/>
</g>
<g transform="rotate(180, 5.12, 14.31)">
<rect x="3.72" y="13.94" width="2.79" height="0.74" stroke="white" fill="white" stroke-width="0"/>
</g>
<g transform="rotate(180, 9.18, 15.58)">
<rect x="7.79" y="15.21" width="2.79" height="0.74" stroke="white" fill="white" stroke-width="0"/>
</g>
<g transform="rotate(180, 5.12, 15.58)">
<rect x="3.72" y="15.21" width="2.79" height="0.74" stroke="white" fill="white" stroke-width="0"/>
</g>
<g transform="rotate(180, 9.18, 16.85)">
<rect x="7.79" y="16.48" width="2.79" height="0.74" stroke="white" fill="white" stroke-width="0"/>
</g>
<g transform="rotate(180, 5.12, 16.85)">
<rect x="3.72" y="16.48" width="2.79" height="0.74" stroke="white" fill="white" stroke-width="0"/>
</g>
<g transform="rotate(180, 9.18, 18.12)">
<rect x="7.79" y="17.75" width="2.79" height="0.74" stroke="white" fill="white" stroke-width="0"/>
</g>
<g transform="rotate(180, 5.12, 18.12)">
<rect x="3.72" y="17.75" width="2.79" height="0.74" stroke="white" fill="white" stroke-width="0"/>
</g>
<g transform="rotate(180, 9.18, 19.39)">
<rect x="7.79" y="19.02" width="2.79" height="0.74" stroke="white" fill="white" stroke-width="0"/>
</g>
<g transform="rotate(180, 5.12, 19.39)">
<rect x="3.72" y="19.02" width="2.79" height="0.74" stroke="white" fill="white" stroke-width="0"/>
</g>
<circle cx="9.75" cy="23.60" r="0.34" stroke="none" fill="yellow" />
<circle cx="3.05" cy="19.45" r="0.34" stroke="none" fill="yellow" />
<circle cx="16.70" cy="20.45" r="0.34" stroke="none" fill="yellow" />
<circle cx="10.60" cy="10.75" r="0.34" stroke="none" fill="yellow" />
<circle cx="16.45" cy="30.25" r="0.34" stroke="none" fill="yellow" />
<circle cx="14.65" cy="29.05" r="0.34" stroke="none" fill="yellow" />
<circle cx="15.55" cy="24.20" r="0.34" stroke="none" fill="yellow" />
<circle cx="14.75" cy="20.50" r="0.34" stroke="none" fill="yellow" />
<circle cx="7.15" cy="16.80" r="0.34" stroke="none" fill="yellow" />
<circle cx="14.15" cy="16.85" r="0.34" stroke="none" fill="yellow" />
<circle cx="11.83" cy="19.62" r="0.34" stroke="none" fill="yellow" />
<circle cx="18.30" cy="28.70" r="0.34" stroke="none" fill="yellow" />
<circle cx="11.75" cy="17.50" r="0.34" stroke="none" fill="yellow" />
<circle cx="18.10" cy="17.55" r="0.34" stroke="none" fill="yellow" />
<circle cx="7.10" cy="15.00" r="0.34" stroke="none" fill="yellow" />
<circle cx="13.75" cy="15.00" r="0.34" stroke="none" fill="yellow" />
<circle cx="10.70" cy="22.95" r="0.34" stroke="none" fill="yellow" />
<circle cx="11.25" cy="16.00" r="0.34" stroke="none" fill="yellow" />
<circle cx="9.70" cy="26.80" r="0.34" stroke="none" fill="yellow" />
<circle cx="15.80" cy="26.65" r="0.34" stroke="none" fill="yellow" />
<circle cx="9.20" cy="13.35" r="0.34" stroke="none" fill="yellow" />
<circle cx="14.45" cy="13.30" r="0.34" stroke="none" fill="yellow" />
<circle cx="20.15" cy="13.35" r="0.34" stroke="none" fill="yellow" />
</g>
</svg>
